<svg width="174" height="59" viewBox="0 0 174 59" fill="none" xmlns="http://www.w3.org/2000/svg">
<g clip-path="url(#clip0_0_989)">
<path d="M87.1465 38.1374L68.0365 0.0419846L48.9302 38.1374L44.7566 46.4198H53.8852L58.0589 38.1374L68.0365 18.2634L78.0141 38.1374L82.1877 46.4198H91.3201L87.1465 38.1374Z" fill="#0070A4"/>
<path d="M112.643 38.1374H112.252C104.164 38.1374 97.5787 31.4466 97.5787 23.229C97.5787 15.0115 104.164 8.32061 112.252 8.32061C120.34 8.32061 126.926 15.0115 126.926 23.229C126.926 31.4466 120.536 37.9389 112.643 38.1374ZM135.141 23.2328C135.141 10.4427 124.905 0.0419846 112.316 0.0419846C99.7275 0.0419846 89.4907 10.4427 89.4907 23.2328C89.4907 36.0229 99.7275 46.4237 112.316 46.4237H135.074V38.1412H129.728C133.053 34.0992 135.074 28.9313 135.074 23.2328H135.138H135.141Z" fill="#0070A4"/>
<path fill-rule="evenodd" clip-rule="evenodd" d="M155.36 38.1374C152.489 37.7405 150.209 35.4198 149.815 32.5038V5.53053H141.663V31.7099C141.663 34.0305 142.185 36.2137 143.162 38.2023C144.533 41.1183 146.877 43.5038 149.747 44.9618C151.704 45.9542 153.857 46.4847 156.137 46.4847H173.996V38.187L155.356 38.1336L155.36 38.1374Z" fill="#0070A4"/>
<path fill-rule="evenodd" clip-rule="evenodd" d="M141.869 4.30916L145.682 0L150.029 4.30916H141.869Z" fill="#FDB813"/>
<path fill-rule="evenodd" clip-rule="evenodd" d="M136.4 38.0038L140.641 41.8817L136.4 46.2977V38.0038Z" fill="#FDB813"/>
<path fill-rule="evenodd" clip-rule="evenodd" d="M53.874 19.2748L67.7435 31.958L53.874 46.4046V19.2748Z" fill="#FDB813"/>
<path d="M62.811 58.5802L64.4602 53.0229H65.7487L67.3979 58.5802H66.3685L66.0304 57.3664H64.1409L63.7952 58.5802H62.8185H62.811ZM64.3813 56.4771H65.775L65.0763 53.9924L64.385 56.4771H64.3813Z" fill="#6D6E70"/>
<path d="M67.4054 55.3092L67.781 54.0992H67.3528V53.0229H68.3671V54.1679L67.8937 55.3092H67.4054Z" fill="#6D6E70"/>
<path d="M69.0583 57.855L69.6894 57.3511C69.8397 57.5496 69.9899 57.6947 70.1327 57.7863C70.283 57.8779 70.4332 57.9237 70.591 57.9237C70.7638 57.9237 70.8915 57.8855 70.9892 57.8015C71.0869 57.7252 71.1395 57.6183 71.1395 57.4809C71.1395 57.2824 70.9291 57.0992 70.5159 56.9466C70.4708 56.9313 70.4407 56.916 70.4182 56.9084C69.9298 56.7176 69.5992 56.5344 69.434 56.3588C69.2687 56.1832 69.186 55.9542 69.186 55.6718C69.186 55.3282 69.3137 55.0458 69.5617 54.8321C69.8096 54.6107 70.1402 54.5038 70.5384 54.5038C70.8089 54.5038 71.0493 54.5496 71.2672 54.6489C71.4851 54.7481 71.6879 54.9084 71.8683 55.1145L71.2822 55.6336C71.1545 55.4962 71.0268 55.3969 70.899 55.3282C70.7788 55.2595 70.6436 55.229 70.5159 55.229C70.3581 55.229 70.2379 55.2672 70.1477 55.3359C70.0576 55.4046 70.0125 55.5038 70.0125 55.626C70.0125 55.771 70.2153 55.9237 70.6286 56.084C70.7413 56.1221 70.8314 56.1603 70.8915 56.1832C71.3123 56.3511 71.5978 56.5191 71.748 56.7023C71.8983 56.8855 71.9734 57.1298 71.9734 57.4351C71.9734 57.8092 71.8457 58.1069 71.5978 58.3282C71.3498 58.5573 71.0117 58.6641 70.5985 58.6641C70.2754 58.6641 69.9899 58.6031 69.742 58.4733C69.4941 58.3435 69.2687 58.1374 69.0583 57.855Z" fill="#6D6E70"/>
<path d="M79.4454 59H79.3402C79.0998 59 78.8819 58.9542 78.7016 58.855C78.5213 58.7557 78.3409 58.5954 78.1681 58.374C78.0028 58.4733 77.83 58.5496 77.6497 58.603C77.4694 58.6488 77.259 58.6718 77.0411 58.6718C76.3349 58.6718 75.7751 58.4198 75.3769 57.916C74.9712 57.4122 74.7684 56.7061 74.7684 55.813C74.7684 54.9198 74.9712 54.2137 75.3694 53.7099C75.7752 53.2061 76.3236 52.9542 77.0411 52.9542C77.7587 52.9542 78.3071 53.2061 78.7128 53.7099C79.111 54.2137 79.3139 54.9198 79.3139 55.813C79.3139 56.2252 79.2688 56.5916 79.1862 56.9122C79.1035 57.2405 78.9758 57.5153 78.8105 57.7443C78.9082 57.8435 79.0134 57.9275 79.1186 57.9733C79.2237 58.0267 79.3289 58.0573 79.4491 58.0649V58.9962L79.4454 59ZM77.6835 57.5191C77.6084 57.3969 77.5182 57.3053 77.413 57.229C77.3079 57.1603 77.1876 57.1069 77.0524 57.0763V56.1298C77.2778 56.145 77.4882 56.2061 77.661 56.313C77.8413 56.4122 77.9991 56.5725 78.1493 56.7786C78.1869 56.6794 78.217 56.5572 78.232 56.4122C78.2545 56.2672 78.262 56.0916 78.262 55.8931C78.262 55.2214 78.1569 54.7252 77.954 54.3855C77.7511 54.0496 77.4431 53.8817 77.0374 53.8817C76.6317 53.8817 76.3311 54.042 76.1208 54.3702C75.9179 54.6985 75.8127 55.1794 75.8127 55.8168C75.8127 56.4542 75.9179 56.9237 76.1208 57.2481C76.3311 57.5763 76.6317 57.7366 77.0374 57.7366C77.1576 57.7366 77.2703 57.7214 77.383 57.6832C77.4882 57.645 77.5858 57.5916 77.6835 57.5229V57.5191Z" fill="#6D6E70"/>
<path d="M80.2005 56.5382V53.0229H81.2298V56.5878C81.2298 57 81.3124 57.2977 81.4702 57.4809C81.6355 57.6641 81.8985 57.7557 82.2666 57.7557C82.6348 57.7557 82.9278 57.6641 83.0931 57.4885C83.2584 57.313 83.341 57.0076 83.341 56.5878V53.0229H84.3403V56.7099C84.3403 57.3435 84.16 57.8244 83.7993 58.1718C83.4462 58.5076 82.9278 58.6756 82.2629 58.6756C81.5979 58.6756 81.0495 58.5 80.7039 58.1489C80.3658 57.7977 80.193 57.2634 80.193 56.542" fill="#6D6E70"/>
<path d="M86.707 53.0229H85.6702V58.5802H86.707V53.0229Z" fill="#6D6E70"/>
<path d="M90.9219 56.9237L91.8686 57.1908C91.7334 57.6718 91.4929 58.0382 91.1473 58.2901C90.8017 58.5496 90.3735 58.6718 89.8513 58.6718C89.145 58.6718 88.6078 58.4351 88.2397 57.9542C87.8791 57.4733 87.6987 56.771 87.6987 55.8282C87.6987 54.8855 87.8941 54.1985 88.2773 53.7023C88.6604 53.2061 89.2014 52.9542 89.9114 52.9542C90.3998 52.9542 90.8055 53.0763 91.1248 53.3282C91.4403 53.5801 91.6507 53.9389 91.7559 54.4046L90.8092 54.6412C90.7416 54.374 90.6289 54.1756 90.4711 54.0382C90.3058 53.9008 90.103 53.8321 89.855 53.8321C89.4869 53.8321 89.2089 54 89.0211 54.3282C88.8408 54.6641 88.7506 55.1603 88.7506 55.8359C88.7506 56.5114 88.8408 56.9656 89.0211 57.2824C89.2089 57.5954 89.4944 57.7481 89.8776 57.7481C90.133 57.7481 90.3509 57.6718 90.5387 57.5267C90.7191 57.3817 90.8468 57.1756 90.9219 56.9237Z" fill="#6D6E70"/>
<path d="M92.6537 58.5802V53.0229H93.6793V55.5916L95.5088 53.0229H96.6809L95.1369 55.0496L96.9363 58.5802H95.7642L94.4532 55.9504L93.6793 56.9542V58.5802H92.6537Z" fill="#6D6E70"/>
<path d="M99.9266 58.5802V53.0229H100.975V57.6336H103.281V58.5802H99.9266Z" fill="#6D6E70"/>
<path d="M104.081 58.5802V53.0229H107.631V53.9237H105.103V55.2405H106.948V56.126H105.103V57.6336H107.744V58.5802H104.081Z" fill="#6D6E70"/>
<path d="M108 58.5802L109.649 53.0229H110.937L112.586 58.5802H111.557L111.219 57.3664H109.329L108.984 58.5802H108.007H108ZM109.574 56.4771H110.967L110.269 53.9924L109.577 56.4771H109.574Z" fill="#6D6E70"/>
<path d="M113.225 58.5802V53.0229H115.077C115.768 53.0229 116.291 53.1603 116.629 53.4275C116.967 53.7023 117.132 54.1221 117.132 54.6794C117.132 55.0382 117.049 55.3435 116.869 55.5802C116.696 55.8244 116.448 55.9924 116.125 56.084L117.339 58.5763H116.234L115.182 56.3206H114.243V58.5763H113.236L113.225 58.5802ZM114.232 55.4466H115.126C115.457 55.4466 115.697 55.3855 115.855 55.2557C116.013 55.1336 116.088 54.9427 116.088 54.6756C116.088 54.4084 116.013 54.2176 115.855 54.0954C115.697 53.9656 115.457 53.9046 115.126 53.9046H114.232V55.4504V55.4466Z" fill="#6D6E70"/>
<path d="M118.229 58.5802V53.0229H119.326L120.9 55.813C121.02 56.0343 121.133 56.2481 121.238 56.4695C121.336 56.6908 121.433 56.9122 121.516 57.1412C121.493 56.9809 121.471 56.7977 121.456 56.6145C121.448 56.4237 121.441 56.2252 121.441 56.0114V53.0229H122.395V58.5802H121.441L119.732 55.7137C119.634 55.5534 119.536 55.355 119.439 55.1336C119.333 54.9046 119.221 54.6527 119.116 54.3779C119.138 54.5305 119.153 54.6985 119.168 54.8817C119.176 55.0572 119.183 55.271 119.183 55.5076V58.5802H118.229Z" fill="#6D6E70"/>
<path d="M124.75 53.0229H123.714V58.5802H124.75V53.0229Z" fill="#6D6E70"/>
<path d="M126.062 58.5802V53.0229H127.158L128.733 55.813C128.853 56.0343 128.965 56.2481 129.071 56.4695C129.168 56.6908 129.266 56.9122 129.349 57.1412C129.326 56.9809 129.304 56.7977 129.288 56.6145C129.281 56.4237 129.273 56.2252 129.273 56.0114V53.0229H130.228V58.5802H129.273L127.564 55.7137C127.467 55.5534 127.369 55.355 127.271 55.1336C127.166 54.9046 127.053 54.6527 126.948 54.3779C126.971 54.5305 126.986 54.6985 127.001 54.8817C127.008 55.0572 127.016 55.271 127.016 55.5076V58.5802H126.062Z" fill="#6D6E70"/>
<path d="M134.694 58.5801L134.642 58C134.469 58.229 134.266 58.3969 134.033 58.5114C133.8 58.6183 133.522 58.6718 133.199 58.6718C132.545 58.6718 132.042 58.4122 131.67 57.9008C131.302 57.3817 131.114 56.6603 131.114 55.7443C131.114 54.8282 131.317 54.1756 131.708 53.687C132.106 53.1985 132.662 52.9542 133.379 52.9542C133.868 52.9542 134.274 53.0763 134.608 53.3206C134.938 53.5572 135.171 53.9084 135.307 54.3588L134.375 54.5954C134.27 54.3359 134.127 54.1374 133.962 54.0153C133.796 53.8855 133.594 53.8244 133.361 53.8244C132.97 53.8244 132.669 53.9924 132.467 54.3282C132.264 54.6565 132.166 55.1527 132.166 55.8053C132.166 56.458 132.264 56.9122 132.467 57.2519C132.669 57.5878 132.955 57.7557 133.331 57.7557C133.624 57.7557 133.864 57.6565 134.059 57.458C134.255 57.2595 134.367 56.9847 134.413 56.6336H133.391V55.7634H135.431V58.584H134.702L134.694 58.5801Z" fill="#6D6E70"/>
<path d="M138.177 58.5802L139.826 53.0229H141.114L142.764 58.5802H141.734L141.396 57.3664H139.507L139.161 58.5802H138.184H138.177ZM139.751 56.4771H141.144L140.446 53.9924L139.754 56.4771H139.751Z" fill="#6D6E70"/>
<path d="M143.402 58.5802V53.0229H145.359C145.998 53.0229 146.479 53.1603 146.798 53.4275C147.114 53.7023 147.272 54.1145 147.272 54.6756C147.272 55.2366 147.121 55.6298 146.813 55.916C146.505 56.1985 146.054 56.3359 145.457 56.3359H144.443V58.584H143.406L143.402 58.5802ZM144.439 55.4542H145.205C145.581 55.4542 145.844 55.3931 146.002 55.271C146.16 55.1565 146.235 54.958 146.235 54.6756C146.235 54.3931 146.16 54.187 146.002 54.0725C145.844 53.9504 145.581 53.8893 145.205 53.8893H144.439V55.458V55.4542Z" fill="#6D6E70"/>
<path d="M148.173 58.5802V53.0229H150.13C150.769 53.0229 151.25 53.1603 151.569 53.4275C151.885 53.7023 152.042 54.1145 152.042 54.6756C152.042 55.2366 151.892 55.6298 151.584 55.916C151.276 56.1985 150.825 56.3359 150.228 56.3359H149.214V58.584H148.177L148.173 58.5802ZM149.21 55.4542H149.976C150.352 55.4542 150.615 55.3931 150.773 55.271C150.93 55.1565 151.006 54.958 151.006 54.6756C151.006 54.3931 150.93 54.187 150.773 54.0725C150.615 53.9504 150.352 53.8893 149.976 53.8893H149.21V55.458V55.4542Z" fill="#6D6E70"/>
<path fill-rule="evenodd" clip-rule="evenodd" d="M20.0492 14.4389L25.1281 10.7328L28.7871 16.3779L20.0492 14.4351V14.4389ZM27.1455 2.74809C39.2118 5.42748 46.8528 17.5382 44.2156 29.7977C43.5845 32.729 42.4237 35.4008 40.8572 37.7366L24.6811 34.1412L28.0921 18.2863L19.8989 16.4657L14.696 40.645L15.0078 40.7137L33.2801 44.7748C28.6782 47.3931 23.1484 48.3779 17.5886 47.1412C5.52601 44.4618 -2.11875 32.3511 0.522165 20.0916C3.15933 7.83206 15.0791 0.0687041 27.1455 2.74809Z" fill="#0070A4"/>
</g>
<defs>
<clipPath id="clip0_0_989">
<rect width="174" height="59" fill="white"/>
</clipPath>
</defs>
</svg>
